<?xml version="1.0" encoding="us-ascii" standalone="no"?><svg xmlns="http://www.w3.org/2000/svg" xmlns:xlink="http://www.w3.org/1999/xlink" contentStyleType="text/css" height="1305px" preserveAspectRatio="none" style="width:1920px;height:1305px;" version="1.1" viewBox="0 0 1920 1305" width="1920px" zoomAndPan="magnify"><defs/><g><!--class QnxDriver--><g id="elem_QnxDriver"><rect codeLine="10" fill="#303030" height="91.1875" id="QnxDriver" rx="2.5" ry="2.5" style="stroke:#0087AF;stroke-width:2.0;" width="217" x="958.5" y="7"/><text fill="#EEEEEE" font-family="monospace" font-size="14" lengthAdjust="spacing" textLength="72" x="1031" y="24.9951">QnxDriver</text><line style="stroke:#0087AF;stroke-width:2.0;" x1="959.5" x2="1174.5" y1="33.2969" y2="33.2969"/><ellipse cx="969.5" cy="46.9453" fill="none" rx="3" ry="3" style="stroke:#038048;stroke-width:1.0;"/><text fill="#EEEEEE" font-family="monospace" font-size="14" lengthAdjust="spacing" textLength="152" x="977.5" y="50.292">TimeCtrl&#160;time_ctrl_</text><ellipse cx="969.5" cy="63.2422" fill="none" rx="3" ry="3" style="stroke:#038048;stroke-width:1.0;"/><text fill="#EEEEEE" font-family="monospace" font-size="14" lengthAdjust="spacing" textLength="152" x="977.5" y="66.5889">UserCtrl&#160;user_ctrl_</text><ellipse cx="969.5" cy="79.5391" fill="none" rx="3" ry="3" style="stroke:#038048;stroke-width:1.0;"/><text fill="#EEEEEE" font-family="monospace" font-size="14" lengthAdjust="spacing" textLength="192" x="977.5" y="82.8857">AlphaDisplay&#160;alpha_disp_</text><line style="stroke:#0087AF;stroke-width:2.0;" x1="959.5" x2="1174.5" y1="90.1875" y2="90.1875"/></g><!--class ClockWrapper--><g id="elem_ClockWrapper"><rect codeLine="18" fill="#303030" height="188.9688" id="ClockWrapper" rx="2.5" ry="2.5" style="stroke:#0087AF;stroke-width:2.0;" width="241" x="1108.5" y="407"/><text fill="#EEEEEE" font-family="monospace" font-size="14" lengthAdjust="spacing" textLength="96" x="1181" y="424.9951">ClockWrapper</text><line style="stroke:#0087AF;stroke-width:2.0;" x1="1109.5" x2="1348.5" y1="433.2969" y2="433.2969"/><ellipse cx="1119.5" cy="446.9453" fill="none" rx="3" ry="3" style="stroke:#038048;stroke-width:1.0;"/><text fill="#EEEEEE" font-family="monospace" font-size="14" lengthAdjust="spacing" textLength="96" x="1127.5" y="450.292">DS3231&#160;&#160;rtc_</text><line style="stroke:#0087AF;stroke-width:2.0;" x1="1109.5" x2="1348.5" y1="457.5938" y2="457.5938"/><ellipse cx="1119.5" cy="471.2422" fill="#84BE84" rx="3" ry="3" style="stroke:#038048;stroke-width:1.0;"/><text fill="#EEEEEE" font-family="monospace" font-size="14" lengthAdjust="spacing" textLength="216" x="1127.5" y="474.5889">uint8_t&#160;get_weekday_mask&#160;()</text><ellipse cx="1119.5" cy="487.5391" fill="#84BE84" rx="3" ry="3" style="stroke:#038048;stroke-width:1.0;"/><text fill="#EEEEEE" font-family="monospace" font-size="14" lengthAdjust="spacing" textLength="216" x="1127.5" y="490.8857">uint8_t&#160;get_yr&#160;&#160;&#160;&#160;&#160;&#160;&#160;&#160;&#160;&#160;&#160;()</text><ellipse cx="1119.5" cy="503.8359" fill="#84BE84" rx="3" ry="3" style="stroke:#038048;stroke-width:1.0;"/><text fill="#EEEEEE" font-family="monospace" font-size="14" lengthAdjust="spacing" textLength="216" x="1127.5" y="507.1826">uint8_t&#160;get_month&#160;&#160;&#160;&#160;&#160;&#160;&#160;&#160;()</text><ellipse cx="1119.5" cy="520.1328" fill="#84BE84" rx="3" ry="3" style="stroke:#038048;stroke-width:1.0;"/><text fill="#EEEEEE" font-family="monospace" font-size="14" lengthAdjust="spacing" textLength="216" x="1127.5" y="523.4795">uint8_t&#160;get_date&#160;&#160;&#160;&#160;&#160;&#160;&#160;&#160;&#160;()</text><ellipse cx="1119.5" cy="536.4297" fill="#84BE84" rx="3" ry="3" style="stroke:#038048;stroke-width:1.0;"/><text fill="#EEEEEE" font-family="monospace" font-size="14" lengthAdjust="spacing" textLength="216" x="1127.5" y="539.7764">uint8_t&#160;get_weekday&#160;&#160;&#160;&#160;&#160;&#160;()</text><ellipse cx="1119.5" cy="552.7266" fill="#84BE84" rx="3" ry="3" style="stroke:#038048;stroke-width:1.0;"/><text fill="#EEEEEE" font-family="monospace" font-size="14" lengthAdjust="spacing" textLength="216" x="1127.5" y="556.0732">uint8_t&#160;get_hr&#160;&#160;&#160;&#160;&#160;&#160;&#160;&#160;&#160;&#160;&#160;()</text><ellipse cx="1119.5" cy="569.0234" fill="#84BE84" rx="3" ry="3" style="stroke:#038048;stroke-width:1.0;"/><text fill="#EEEEEE" font-family="monospace" font-size="14" lengthAdjust="spacing" textLength="216" x="1127.5" y="572.3701">uint8_t&#160;get_min&#160;&#160;&#160;&#160;&#160;&#160;&#160;&#160;&#160;&#160;()</text><ellipse cx="1119.5" cy="585.3203" fill="#84BE84" rx="3" ry="3" style="stroke:#038048;stroke-width:1.0;"/><text fill="#EEEEEE" font-family="monospace" font-size="14" lengthAdjust="spacing" textLength="216" x="1127.5" y="588.667">uint8_t&#160;get_sec&#160;&#160;&#160;&#160;&#160;&#160;&#160;&#160;&#160;&#160;()</text></g><!--class Adafruit_AlphaNum4--><g id="elem_Adafruit_AlphaNum4"><rect codeLine="22" fill="#303030" height="26.2969" id="Adafruit_AlphaNum4" rx="2.5" ry="2.5" style="stroke:#0087AF;stroke-width:2.0;" width="200" x="814" y="239.5"/><text fill="#EEEEEE" font-family="monospace" font-size="14" lengthAdjust="spacing" textLength="144" x="842" y="257.4951">Adafruit_AlphaNum4</text></g><!--class TimeCtrl--><g id="elem_TimeCtrl"><rect codeLine="34" fill="#303030" height="188.9688" id="TimeCtrl" rx="2.5" ry="2.5" style="stroke:#0087AF;stroke-width:2.0;" width="217" x="1120.5" y="158"/><text fill="#EEEEEE" font-family="monospace" font-size="14" lengthAdjust="spacing" textLength="64" x="1197" y="175.9951">TimeCtrl</text><line style="stroke:#0087AF;stroke-width:2.0;" x1="1121.5" x2="1336.5" y1="184.2969" y2="184.2969"/><rect fill="none" height="6" style="stroke:#C82930;stroke-width:1.0;" width="6" x="1128.5" y="194.9453"/><text fill="#EEEEEE" font-family="monospace" font-size="14" lengthAdjust="spacing" textLength="160" x="1139.5" y="201.292">ClockWrapper&#160;&#160;clock_</text><rect fill="none" height="6" style="stroke:#C82930;stroke-width:1.0;" width="6" x="1128.5" y="211.2422"/><text fill="#EEEEEE" font-family="monospace" font-size="14" lengthAdjust="spacing" textLength="176" x="1139.5" y="217.5889">AlphaDisplay*&#160;display_</text><line style="stroke:#0087AF;stroke-width:2.0;" x1="1121.5" x2="1336.5" y1="224.8906" y2="224.8906"/><ellipse cx="1131.5" cy="238.5391" fill="#84BE84" rx="3" ry="3" style="stroke:#038048;stroke-width:1.0;"/><text fill="#EEEEEE" font-family="monospace" font-size="14" lengthAdjust="spacing" textLength="136" x="1139.5" y="241.8857">bool&#160;is_on_fri&#160;()</text><ellipse cx="1131.5" cy="254.8359" fill="#84BE84" rx="3" ry="3" style="stroke:#038048;stroke-width:1.0;"/><text fill="#EEEEEE" font-family="monospace" font-size="14" lengthAdjust="spacing" textLength="176" x="1139.5" y="258.1826">void&#160;set_year&#160;&#160;(short)</text><ellipse cx="1131.5" cy="271.1328" fill="#84BE84" rx="3" ry="3" style="stroke:#038048;stroke-width:1.0;"/><text fill="#EEEEEE" font-family="monospace" font-size="14" lengthAdjust="spacing" textLength="192" x="1139.5" y="274.4795">void&#160;set_month&#160;(uint8_t)</text><ellipse cx="1131.5" cy="287.4297" fill="#84BE84" rx="3" ry="3" style="stroke:#038048;stroke-width:1.0;"/><text fill="#EEEEEE" font-family="monospace" font-size="14" lengthAdjust="spacing" textLength="192" x="1139.5" y="290.7764">void&#160;set_day&#160;&#160;&#160;(uint8_t)</text><ellipse cx="1131.5" cy="303.7266" fill="#84BE84" rx="3" ry="3" style="stroke:#038048;stroke-width:1.0;"/><text fill="#EEEEEE" font-family="monospace" font-size="14" lengthAdjust="spacing" textLength="192" x="1139.5" y="307.0732">void&#160;set_hr&#160;&#160;&#160;&#160;(uint8_t)</text><ellipse cx="1131.5" cy="320.0234" fill="#84BE84" rx="3" ry="3" style="stroke:#038048;stroke-width:1.0;"/><text fill="#EEEEEE" font-family="monospace" font-size="14" lengthAdjust="spacing" textLength="192" x="1139.5" y="323.3701">void&#160;set_min&#160;&#160;&#160;(uint8_t)</text><ellipse cx="1131.5" cy="336.3203" fill="#84BE84" rx="3" ry="3" style="stroke:#038048;stroke-width:1.0;"/><text fill="#EEEEEE" font-family="monospace" font-size="14" lengthAdjust="spacing" textLength="192" x="1139.5" y="339.667">void&#160;set_sec&#160;&#160;&#160;(uint8_t)</text></g><!--class UserCtrl--><g id="elem_UserCtrl"><rect codeLine="61" fill="#303030" height="188.9688" id="UserCtrl" rx="2.5" ry="2.5" style="stroke:#0087AF;stroke-width:2.0;" width="273" x="472.5" y="407"/><text fill="#EEEEEE" font-family="monospace" font-size="14" lengthAdjust="spacing" textLength="64" x="577" y="424.9951">UserCtrl</text><line style="stroke:#0087AF;stroke-width:2.0;" x1="473.5" x2="744.5" y1="433.2969" y2="433.2969"/><rect fill="none" height="6" style="stroke:#C82930;stroke-width:1.0;" width="6" x="480.5" y="443.9453"/><text fill="#EEEEEE" font-family="monospace" font-size="14" lengthAdjust="spacing" textLength="192" x="491.5" y="450.292">AlphaDisplay*&#160;&#160;&#160;display_</text><text fill="#EEEEEE" font-family="monospace" font-size="14" lengthAdjust="spacing" textLength="8" x="491.5" y="466.5889">&#160;</text><rect fill="none" height="6" style="stroke:#C82930;stroke-width:1.0;" width="6" x="480.5" y="476.5391"/><text fill="#EEEEEE" font-family="monospace" font-size="14" lengthAdjust="spacing" textLength="192" x="491.5" y="482.8857">MomentarySwitch&#160;inc_btn_</text><rect fill="none" height="6" style="stroke:#C82930;stroke-width:1.0;" width="6" x="480.5" y="492.8359"/><text fill="#EEEEEE" font-family="monospace" font-size="14" lengthAdjust="spacing" textLength="192" x="491.5" y="499.1826">MomentarySwitch&#160;dec_btn_</text><rect fill="none" height="6" style="stroke:#C82930;stroke-width:1.0;" width="6" x="480.5" y="509.1328"/><text fill="#EEEEEE" font-family="monospace" font-size="14" lengthAdjust="spacing" textLength="216" x="491.5" y="515.4795">MomentarySwitch&#160;snooze_btn_</text><rect fill="none" height="6" style="stroke:#C82930;stroke-width:1.0;" width="6" x="480.5" y="525.4297"/><text fill="#EEEEEE" font-family="monospace" font-size="14" lengthAdjust="spacing" textLength="232" x="491.5" y="531.7764">LatchingSwitch&#160;&#160;alarm_toggle_</text><text fill="#EEEEEE" font-family="monospace" font-size="14" lengthAdjust="spacing" textLength="8" x="491.5" y="548.0732">&#160;</text><rect fill="none" height="6" style="stroke:#C82930;stroke-width:1.0;" width="6" x="480.5" y="558.0234"/><text fill="#EEEEEE" font-family="monospace" font-size="14" lengthAdjust="spacing" textLength="248" x="491.5" y="564.3701">TimeSetState&#160;&#160;&#160;&#160;time_set_state_</text><line style="stroke:#0087AF;stroke-width:2.0;" x1="473.5" x2="744.5" y1="571.6719" y2="571.6719"/><ellipse cx="483.5" cy="585.3203" fill="#84BE84" rx="3" ry="3" style="stroke:#038048;stroke-width:1.0;"/><text fill="#EEEEEE" font-family="monospace" font-size="14" lengthAdjust="spacing" textLength="120" x="491.5" y="588.667">void&#160;set_time()</text></g><!--class Alarm--><g id="elem_Alarm"><rect codeLine="80" fill="#303030" height="123.7813" id="Alarm" rx="2.5" ry="2.5" style="stroke:#0087AF;stroke-width:2.0;" width="529" x="1384.5" y="439.5"/><text fill="#EEEEEE" font-family="monospace" font-size="14" lengthAdjust="spacing" textLength="40" x="1629" y="457.4951">Alarm</text><line style="stroke:#0087AF;stroke-width:2.0;" x1="1385.5" x2="1912.5" y1="465.7969" y2="465.7969"/><rect fill="none" height="6" style="stroke:#C82930;stroke-width:1.0;" width="6" x="1392.5" y="476.4453"/><text fill="#EEEEEE" font-family="monospace" font-size="14" lengthAdjust="spacing" textLength="264" x="1403.5" y="482.792">uint8_t&#160;alarm_days_&#160;//&#160;8-bit&#160;mask</text><rect fill="none" height="6" style="stroke:#C82930;stroke-width:1.0;" width="6" x="1392.5" y="492.7422"/><text fill="#EEEEEE" font-family="monospace" font-size="14" lengthAdjust="spacing" textLength="88" x="1403.5" y="499.0889">uint8_t&#160;hr_</text><rect fill="none" height="6" style="stroke:#C82930;stroke-width:1.0;" width="6" x="1392.5" y="509.0391"/><text fill="#EEEEEE" font-family="monospace" font-size="14" lengthAdjust="spacing" textLength="96" x="1403.5" y="515.3857">uint8_t&#160;min_</text><rect fill="none" height="6" style="stroke:#C82930;stroke-width:1.0;" width="6" x="1392.5" y="525.3359"/><text fill="#EEEEEE" font-family="monospace" font-size="14" lengthAdjust="spacing" textLength="144" x="1403.5" y="531.6826">bool&#160;&#160;&#160;&#160;triggered_</text><line style="stroke:#0087AF;stroke-width:2.0;" x1="1385.5" x2="1912.5" y1="538.9844" y2="538.9844"/><ellipse cx="1395.5" cy="552.6328" fill="#84BE84" rx="3" ry="3" style="stroke:#038048;stroke-width:1.0;"/><text fill="#EEEEEE" font-family="monospace" font-size="14" lengthAdjust="spacing" textLength="504" x="1403.5" y="555.9795">bool&#160;&#160;&#160;&#160;is_alarm_time(uint8_t&#160;weekday,&#160;uint8_t&#160;hr,&#160;uint8_t&#160;min)</text></g><!--class AlphaDisplay--><g id="elem_AlphaDisplay"><rect codeLine="48" fill="#303030" height="123.7813" id="AlphaDisplay" rx="2.5" ry="2.5" style="stroke:#0087AF;stroke-width:2.0;" width="449" x="329.5" y="190.5"/><text fill="#EEEEEE" font-family="monospace" font-size="14" lengthAdjust="spacing" textLength="96" x="506" y="208.4951">AlphaDisplay</text><line style="stroke:#0087AF;stroke-width:2.0;" x1="330.5" x2="777.5" y1="216.7969" y2="216.7969"/><rect fill="none" height="6" style="stroke:#C82930;stroke-width:1.0;" width="6" x="337.5" y="227.4453"/><text fill="#EEEEEE" font-family="monospace" font-size="14" lengthAdjust="spacing" textLength="256" x="348.5" y="233.792">Adafruit_AlphaNum4&#160;led_segments_</text><line style="stroke:#0087AF;stroke-width:2.0;" x1="330.5" x2="777.5" y1="241.0938" y2="241.0938"/><ellipse cx="340.5" cy="254.7422" fill="#84BE84" rx="3" ry="3" style="stroke:#038048;stroke-width:1.0;"/><text fill="#EEEEEE" font-family="monospace" font-size="14" lengthAdjust="spacing" textLength="288" x="348.5" y="258.0889">void&#160;write_disp_str&#160;&#160;&#160;&#160;(const&#160;char*)</text><ellipse cx="340.5" cy="271.0391" fill="#84BE84" rx="3" ry="3" style="stroke:#038048;stroke-width:1.0;"/><text fill="#EEEEEE" font-family="monospace" font-size="14" lengthAdjust="spacing" textLength="424" x="348.5" y="274.3857">void&#160;write_disp_str_num(const&#160;char*&#160;str,&#160;uint8_t&#160;num)</text><ellipse cx="340.5" cy="287.3359" fill="#84BE84" rx="3" ry="3" style="stroke:#038048;stroke-width:1.0;"/><text fill="#EEEEEE" font-family="monospace" font-size="14" lengthAdjust="spacing" textLength="424" x="348.5" y="290.6826">void&#160;write_disp_hr_min&#160;(uint8_t&#160;hr&#160;&#160;&#160;&#160;&#160;,&#160;uint8_t&#160;min)</text><ellipse cx="340.5" cy="303.6328" fill="#84BE84" rx="3" ry="3" style="stroke:#038048;stroke-width:1.0;"/><text fill="#EEEEEE" font-family="monospace" font-size="14" lengthAdjust="spacing" textLength="392" x="348.5" y="306.9795">void&#160;write_disp_time&#160;&#160;&#160;(uint8_t&#160;&#160;&#160;&#160;&#160;&#160;&#160;&#160;,&#160;uint8_t)</text></g><!--class AudioCtrl--><g id="elem_AudioCtrl"><rect codeLine="90" fill="#303030" height="91.1875" id="AudioCtrl" rx="2.5" ry="2.5" style="stroke:#0087AF;stroke-width:2.0;" width="281" x="1508.5" y="835.5"/><text fill="#EEEEEE" font-family="monospace" font-size="14" lengthAdjust="spacing" textLength="72" x="1613" y="853.4951">AudioCtrl</text><line style="stroke:#0087AF;stroke-width:2.0;" x1="1509.5" x2="1788.5" y1="861.7969" y2="861.7969"/><rect fill="none" height="6" style="stroke:#C82930;stroke-width:1.0;" width="6" x="1516.5" y="872.4453"/><text fill="#EEEEEE" font-family="monospace" font-size="14" lengthAdjust="spacing" textLength="184" x="1527.5" y="878.792">SpeakerWrapper&#160;speaker_</text><rect fill="none" height="6" style="stroke:#C82930;stroke-width:1.0;" width="6" x="1516.5" y="888.7422"/><text fill="#EEEEEE" font-family="monospace" font-size="14" lengthAdjust="spacing" textLength="256" x="1527.5" y="895.0889">AlarmSound&#160;selected_alarm_sound_</text><line style="stroke:#0087AF;stroke-width:2.0;" x1="1509.5" x2="1788.5" y1="902.3906" y2="902.3906"/><ellipse cx="1519.5" cy="916.0391" fill="#84BE84" rx="3" ry="3" style="stroke:#038048;stroke-width:1.0;"/><text fill="#EEEEEE" font-family="monospace" font-size="14" lengthAdjust="spacing" textLength="184" x="1527.5" y="919.3857">void&#160;play_alarm_sound()</text></g><!--class MomentarySwitch--><g id="elem_MomentarySwitch"><rect codeLine="121" fill="#303030" height="449.7188" id="MomentarySwitch" rx="2.5" ry="2.5" style="stroke:#0087AF;stroke-width:2.0;" width="265" x="91.5" y="656"/><text fill="#EEEEEE" font-family="monospace" font-size="14" lengthAdjust="spacing" textLength="120" x="164" y="673.9951">MomentarySwitch</text><line style="stroke:#0087AF;stroke-width:2.0;" x1="92.5" x2="355.5" y1="682.2969" y2="682.2969"/><rect fill="none" height="6" style="stroke:#C82930;stroke-width:1.0;" width="6" x="99.5" y="692.9453"/><text fill="#EEEEEE" font-family="monospace" font-size="14" lengthAdjust="spacing" textLength="104" x="110.5" y="699.292">int&#160;on_value_</text><rect fill="none" height="6" style="stroke:#C82930;stroke-width:1.0;" width="6" x="99.5" y="709.2422"/><text fill="#EEEEEE" font-family="monospace" font-size="14" lengthAdjust="spacing" textLength="96" x="110.5" y="715.5889">int&#160;reading_</text><text fill="#EEEEEE" font-family="monospace" font-size="14" lengthAdjust="spacing" textLength="8" x="110.5" y="731.8857">&#160;</text><rect fill="none" height="6" style="stroke:#C82930;stroke-width:1.0;" width="6" x="99.5" y="741.8359"/><text fill="#EEEEEE" font-family="monospace" font-size="14" lengthAdjust="spacing" textLength="176" x="110.5" y="748.1826">int&#160;settle_time_in_ms_</text><rect fill="none" height="6" style="stroke:#C82930;stroke-width:1.0;" width="6" x="99.5" y="758.1328"/><text fill="#EEEEEE" font-family="monospace" font-size="14" lengthAdjust="spacing" textLength="200" x="110.5" y="764.4795">int&#160;long_hold_time_in_ms_</text><rect fill="none" height="6" style="stroke:#C82930;stroke-width:1.0;" width="6" x="99.5" y="774.4297"/><text fill="#EEEEEE" font-family="monospace" font-size="14" lengthAdjust="spacing" textLength="208" x="110.5" y="780.7764">int&#160;short_hold_time_in_ms_</text><rect fill="none" height="6" style="stroke:#C82930;stroke-width:1.0;" width="6" x="99.5" y="790.7266"/><text fill="#EEEEEE" font-family="monospace" font-size="14" lengthAdjust="spacing" textLength="192" x="110.5" y="797.0732">int&#160;mult_input_time_gap_</text><text fill="#EEEEEE" font-family="monospace" font-size="14" lengthAdjust="spacing" textLength="8" x="110.5" y="813.3701">&#160;</text><rect fill="none" height="6" style="stroke:#C82930;stroke-width:1.0;" width="6" x="99.5" y="823.3203"/><text fill="#EEEEEE" font-family="monospace" font-size="14" lengthAdjust="spacing" textLength="104" x="110.5" y="829.667">int&#160;sw_state_</text><rect fill="none" height="6" style="stroke:#C82930;stroke-width:1.0;" width="6" x="99.5" y="839.6172"/><text fill="#EEEEEE" font-family="monospace" font-size="14" lengthAdjust="spacing" textLength="120" x="110.5" y="845.9639">int&#160;prev_state_</text><text fill="#EEEEEE" font-family="monospace" font-size="14" lengthAdjust="spacing" textLength="8" x="110.5" y="862.2607">&#160;</text><rect fill="none" height="6" style="stroke:#C82930;stroke-width:1.0;" width="6" x="99.5" y="872.2109"/><text fill="#EEEEEE" font-family="monospace" font-size="14" lengthAdjust="spacing" textLength="200" x="110.5" y="878.5576">int&#160;prev_debounced_input_</text><rect fill="none" height="6" style="stroke:#C82930;stroke-width:1.0;" width="6" x="99.5" y="888.5078"/><text fill="#EEEEEE" font-family="monospace" font-size="14" lengthAdjust="spacing" textLength="176" x="110.5" y="894.8545">int&#160;multi_input_count_</text><text fill="#EEEEEE" font-family="monospace" font-size="14" lengthAdjust="spacing" textLength="8" x="110.5" y="911.1514">&#160;</text><rect fill="none" height="6" style="stroke:#C82930;stroke-width:1.0;" width="6" x="99.5" y="921.1016"/><text fill="#EEEEEE" font-family="monospace" font-size="14" lengthAdjust="spacing" textLength="176" x="110.5" y="927.4482">unsigned&#160;long&#160;prev_ms_</text><rect fill="none" height="6" style="stroke:#C82930;stroke-width:1.0;" width="6" x="99.5" y="937.3984"/><text fill="#EEEEEE" font-family="monospace" font-size="14" lengthAdjust="spacing" textLength="200" x="110.5" y="943.7451">unsigned&#160;long&#160;on_time_ms_</text><rect fill="none" height="6" style="stroke:#C82930;stroke-width:1.0;" width="6" x="99.5" y="953.6953"/><text fill="#EEEEEE" font-family="monospace" font-size="14" lengthAdjust="spacing" textLength="240" x="110.5" y="960.042">unsigned&#160;long&#160;release_time_ms_</text><rect fill="none" height="6" style="stroke:#C82930;stroke-width:1.0;" width="6" x="99.5" y="969.9922"/><text fill="#EEEEEE" font-family="monospace" font-size="14" lengthAdjust="spacing" textLength="232" x="110.5" y="976.3389">unsigned&#160;long&#160;time_since_off_</text><text fill="#EEEEEE" font-family="monospace" font-size="14" lengthAdjust="spacing" textLength="8" x="110.5" y="992.6357">&#160;</text><rect fill="none" height="6" style="stroke:#C82930;stroke-width:1.0;" width="6" x="99.5" y="1002.5859"/><text fill="#EEEEEE" font-family="monospace" font-size="14" lengthAdjust="spacing" textLength="208" x="110.5" y="1008.9326">SwitchState&#160;sw_state_type_</text><line style="stroke:#0087AF;stroke-width:2.0;" x1="92.5" x2="355.5" y1="1016.2344" y2="1016.2344"/><ellipse cx="102.5" cy="1029.8828" fill="#84BE84" rx="3" ry="3" style="stroke:#038048;stroke-width:1.0;"/><text fill="#EEEEEE" font-family="monospace" font-size="14" lengthAdjust="spacing" textLength="216" x="110.5" y="1033.2295">InputType&#160;get_input_type&#160;()</text><ellipse cx="102.5" cy="1046.1797" fill="#84BE84" rx="3" ry="3" style="stroke:#038048;stroke-width:1.0;"/><text fill="#EEEEEE" font-family="monospace" font-size="14" lengthAdjust="spacing" textLength="216" x="110.5" y="1049.5264">int&#160;&#160;&#160;&#160;&#160;&#160;&#160;debounce_input&#160;()</text><ellipse cx="102.5" cy="1062.4766" fill="#84BE84" rx="3" ry="3" style="stroke:#038048;stroke-width:1.0;"/><text fill="#EEEEEE" font-family="monospace" font-size="14" lengthAdjust="spacing" textLength="216" x="110.5" y="1065.8232">int&#160;&#160;&#160;&#160;&#160;&#160;&#160;get_pin&#160;&#160;&#160;&#160;&#160;&#160;&#160;&#160;()</text><ellipse cx="102.5" cy="1078.7734" fill="#84BE84" rx="3" ry="3" style="stroke:#038048;stroke-width:1.0;"/><text fill="#EEEEEE" font-family="monospace" font-size="14" lengthAdjust="spacing" textLength="216" x="110.5" y="1082.1201">int&#160;&#160;&#160;&#160;&#160;&#160;&#160;get_reading&#160;&#160;&#160;&#160;()</text><ellipse cx="102.5" cy="1095.0703" fill="#84BE84" rx="3" ry="3" style="stroke:#038048;stroke-width:1.0;"/><text fill="#EEEEEE" font-family="monospace" font-size="14" lengthAdjust="spacing" textLength="216" x="110.5" y="1098.417">bool&#160;&#160;&#160;&#160;&#160;&#160;is_short_press&#160;()</text></g><!--class DS3231--><g id="elem_DS3231"><rect fill="#303030" height="26.2969" id="DS3231" rx="2.5" ry="2.5" style="stroke:#0087AF;stroke-width:2.0;" width="200" x="1151" y="868"/><text fill="#EEEEEE" font-family="monospace" font-size="14" lengthAdjust="spacing" textLength="48" x="1227" y="885.9951">DS3231</text></g><g id="elem_Note0"><path d="M862.5,859.5 L862.5,902.0938 L1115.5,902.0938 L1115.5,869.5 L1105.5,859.5 L862.5,859.5 " fill="#303030" style="stroke:#AF87AF;stroke-width:0.5;"/><path d="M1105.5,859.5 L1105.5,869.5 L1115.5,869.5 L1105.5,859.5 " fill="#303030" style="stroke:#AF87AF;stroke-width:1.0;"/><text fill="#EEEEEE" font-family="monospace" font-size="14" lengthAdjust="spacing" textLength="224" x="868.5" y="877.4951">QnxDriver&#160;mediates&#160;data&#160;flow</text><text fill="#EEEEEE" font-family="monospace" font-size="14" lengthAdjust="spacing" textLength="200" x="868.5" y="893.792">from&#160;UserCtrl&#160;to&#160;TimeCtrl</text></g><!--class LatchingSwitch--><g id="elem_LatchingSwitch"><rect fill="#303030" height="26.2969" id="LatchingSwitch" rx="2.5" ry="2.5" style="stroke:#0087AF;stroke-width:2.0;" width="200" x="392" y="868"/><text fill="#EEEEEE" font-family="monospace" font-size="14" lengthAdjust="spacing" textLength="112" x="436" y="885.9951">LatchingSwitch</text></g><!--class TimeSetState--><g id="elem_TimeSetState"><rect codeLine="58" fill="#303030" height="42.5938" id="TimeSetState" rx="2.5" ry="2.5" style="stroke:#0087AF;stroke-width:2.0;" width="200" x="627" y="859.5"/><text fill="#EEEEEE" font-family="monospace" font-size="14" font-style="italic" lengthAdjust="spacing" textLength="104" x="675" y="877.4951">&#171;enumeration&#187;</text><text fill="#EEEEEE" font-family="monospace" font-size="14" lengthAdjust="spacing" textLength="96" x="679" y="893.792">TimeSetState</text></g><!--class InputType--><g id="elem_InputType"><rect codeLine="98" fill="#303030" height="132.0781" id="InputType" rx="2.5" ry="2.5" style="stroke:#0087AF;stroke-width:2.0;" width="200" x="7" y="1166"/><text fill="#EEEEEE" font-family="monospace" font-size="14" font-style="italic" lengthAdjust="spacing" textLength="104" x="55" y="1183.9951">&#171;enumeration&#187;</text><text fill="#EEEEEE" font-family="monospace" font-size="14" lengthAdjust="spacing" textLength="72" x="71" y="1200.292">InputType</text><line style="stroke:#0087AF;stroke-width:2.0;" x1="8" x2="206" y1="1208.5938" y2="1208.5938"/><text fill="#EEEEEE" font-family="monospace" font-size="14" lengthAdjust="spacing" textLength="32" x="13" y="1225.5889">NONE</text><text fill="#EEEEEE" font-family="monospace" font-size="14" lengthAdjust="spacing" textLength="32" x="13" y="1241.8857">LONG</text><text fill="#EEEEEE" font-family="monospace" font-size="14" lengthAdjust="spacing" textLength="40" x="13" y="1258.1826">SHORT</text><text fill="#EEEEEE" font-family="monospace" font-size="14" lengthAdjust="spacing" textLength="48" x="13" y="1274.4795">DOUBLE</text><text fill="#EEEEEE" font-family="monospace" font-size="14" lengthAdjust="spacing" textLength="48" x="13" y="1290.7764">TRIPLE</text></g><!--class SwitchState--><g id="elem_SwitchState"><rect codeLine="106" fill="#303030" height="132.0781" id="SwitchState" rx="2.5" ry="2.5" style="stroke:#0087AF;stroke-width:2.0;" width="200" x="242" y="1166"/><text fill="#EEEEEE" font-family="monospace" font-size="14" font-style="italic" lengthAdjust="spacing" textLength="104" x="290" y="1183.9951">&#171;enumeration&#187;</text><text fill="#EEEEEE" font-family="monospace" font-size="14" lengthAdjust="spacing" textLength="88" x="298" y="1200.292">SwitchState</text><line style="stroke:#0087AF;stroke-width:2.0;" x1="243" x2="441" y1="1208.5938" y2="1208.5938"/><text fill="#EEEEEE" font-family="monospace" font-size="14" lengthAdjust="spacing" textLength="32" x="248" y="1225.5889">IDLE</text><text fill="#EEEEEE" font-family="monospace" font-size="14" lengthAdjust="spacing" textLength="40" x="248" y="1241.8857">PRESS</text><text fill="#EEEEEE" font-family="monospace" font-size="14" lengthAdjust="spacing" textLength="32" x="248" y="1258.1826">HOLD</text><text fill="#EEEEEE" font-family="monospace" font-size="14" lengthAdjust="spacing" textLength="56" x="248" y="1274.4795">RELEASE</text><text fill="#EEEEEE" font-family="monospace" font-size="14" lengthAdjust="spacing" textLength="32" x="248" y="1290.7764">WAIT</text></g><!--reverse link QnxDriver to UserCtrl--><g id="link_QnxDriver_UserCtrl"><path codeLine="30" d="M1045.5,110.37 C1045.5,218.83 1045.5,470 1045.5,470 C1045.5,470 873.66,470 745.61,470 " fill="none" id="QnxDriver-backto-UserCtrl" style="stroke:#A8A8A8;stroke-width:1.0;"/><polygon fill="#A8A8A8" points="1045.5,98.37,1041.5,104.37,1045.5,110.37,1049.5,104.37,1045.5,98.37" style="stroke:#A8A8A8;stroke-width:1.0;"/></g><!--reverse link QnxDriver to TimeCtrl--><g id="link_QnxDriver_TimeCtrl"><path codeLine="31" d="M1148,110.13 C1148,127.89 1148,136.93 1148,157.67 " fill="none" id="QnxDriver-backto-TimeCtrl" style="stroke:#A8A8A8;stroke-width:1.0;"/><polygon fill="#A8A8A8" points="1148,98.13,1144,104.13,1148,110.13,1152,104.13,1148,98.13" style="stroke:#A8A8A8;stroke-width:1.0;"/></g><!--reverse link QnxDriver to AlphaDisplay--><g id="link_QnxDriver_AlphaDisplay"><path codeLine="32" d="M986.25,110.2 C986.25,158.26 986.25,215 986.25,215 C986.25,215 883.81,215 778.67,215 " fill="none" id="QnxDriver-backto-AlphaDisplay" style="stroke:#A8A8A8;stroke-width:1.0;"/><polygon fill="#A8A8A8" points="986.25,98.2,982.25,104.2,986.25,110.2,990.25,104.2,986.25,98.2" style="stroke:#A8A8A8;stroke-width:1.0;"/></g><!--link AlphaDisplay to UserCtrl--><g id="link_AlphaDisplay_UserCtrl"><path codeLine="33" d="M609,314.69 C609,342.49 609,363.88 609,394.69 " fill="none" id="AlphaDisplay-to-UserCtrl" style="stroke:#A8A8A8;stroke-width:1.0;"/><polygon fill="none" points="609,406.69,613,400.69,609,394.69,605,400.69,609,406.69" style="stroke:#A8A8A8;stroke-width:1.0;"/></g><!--reverse link TimeCtrl to ClockWrapper--><g id="link_TimeCtrl_ClockWrapper"><path codeLine="34" d="M1229,359.35 C1229,378.86 1229,387.41 1229,406.92 " fill="none" id="TimeCtrl-backto-ClockWrapper" style="stroke:#A8A8A8;stroke-width:1.0;"/><polygon fill="#A8A8A8" points="1229,347.35,1225,353.35,1229,359.35,1233,353.35,1229,347.35" style="stroke:#A8A8A8;stroke-width:1.0;"/></g><!--reverse link TimeCtrl to Alarm--><g id="link_TimeCtrl_Alarm"><path codeLine="35" d="M1349.71,253 C1474.15,253 1649,253 1649,253 C1649,253 1649,365.83 1649,439.43 " fill="none" id="TimeCtrl-backto-Alarm" style="stroke:#A8A8A8;stroke-width:1.0;"/><polygon fill="#A8A8A8" points="1337.71,253,1343.71,257,1349.71,253,1343.71,249,1337.71,253" style="stroke:#A8A8A8;stroke-width:1.0;"/><text fill="#EEEEEE" font-family="monospace" font-size="14" lengthAdjust="spacing" textLength="32" x="1615.15" y="428.3531">1..*</text></g><!--reverse link ClockWrapper to DS3231--><g id="link_ClockWrapper_DS3231"><path codeLine="36" d="M1250.25,608.28 C1250.25,702.03 1250.25,825.44 1250.25,867.82 " fill="none" id="ClockWrapper-backto-DS3231" style="stroke:#A8A8A8;stroke-width:1.0;"/><polygon fill="#A8A8A8" points="1250.25,596.28,1246.25,602.28,1250.25,608.28,1254.25,602.28,1250.25,596.28" style="stroke:#A8A8A8;stroke-width:1.0;"/></g><!--reverse link Alarm to AudioCtrl--><g id="link_Alarm_AudioCtrl"><path codeLine="37" d="M1649,575.74 C1649,652.07 1649,767.64 1649,835.43 " fill="none" id="Alarm-backto-AudioCtrl" style="stroke:#A8A8A8;stroke-width:1.0;"/><polygon fill="#A8A8A8" points="1649,563.74,1645,569.74,1649,575.74,1653,569.74,1649,563.74" style="stroke:#A8A8A8;stroke-width:1.0;"/></g><!--link UserCtrl to Note0--><g id="link_UserCtrl_Note0"><path codeLine="40" d="M745.77,533 C836.23,533 938.25,533 938.25,533 C938.25,533 938.25,783.62 938.25,859.49 " fill="none" id="UserCtrl-Note0" style="stroke:#A8A8A8;stroke-width:1.0;stroke-dasharray:7.0,7.0;"/></g><!--link TimeCtrl to Note0--><g id="link_TimeCtrl_Note0"><path codeLine="41" d="M1120.15,331 C1095.79,331 1077,331 1077,331 C1077,331 1077,757.75 1077,859.44 " fill="none" id="TimeCtrl-Note0" style="stroke:#A8A8A8;stroke-width:1.0;stroke-dasharray:7.0,7.0;"/></g><!--reverse link UserCtrl to MomentarySwitch--><g id="link_UserCtrl_MomentarySwitch"><path codeLine="43" d="M460.49,502 C395.18,502 343,502 343,502 C343,502 343,574.38 343,655.88 " fill="none" id="UserCtrl-backto-MomentarySwitch" style="stroke:#A8A8A8;stroke-width:1.0;"/><polygon fill="#A8A8A8" points="472.49,502,466.49,498,460.49,502,466.49,506,472.49,502" style="stroke:#A8A8A8;stroke-width:1.0;"/><text fill="#EEEEEE" font-family="monospace" font-size="14" lengthAdjust="spacing" textLength="32" x="314.7016" y="644.5078">1..*</text></g><!--reverse link UserCtrl to LatchingSwitch--><g id="link_UserCtrl_LatchingSwitch"><path codeLine="44" d="M532.25,608.28 C532.25,702.03 532.25,825.44 532.25,867.82 " fill="none" id="UserCtrl-backto-LatchingSwitch" style="stroke:#A8A8A8;stroke-width:1.0;"/><polygon fill="#A8A8A8" points="532.25,596.28,528.25,602.28,532.25,608.28,536.25,602.28,532.25,596.28" style="stroke:#A8A8A8;stroke-width:1.0;"/><text fill="#EEEEEE" font-family="monospace" font-size="14" lengthAdjust="spacing" textLength="32" x="509.4953" y="856.7402">1..*</text></g><!--reverse link AlphaDisplay to Adafruit_AlphaNum4--><g id="link_AlphaDisplay_Adafruit_AlphaNum4"><path codeLine="46" d="M790.67,253 C802.77,253 802.58,253 813.87,253 " fill="none" id="AlphaDisplay-backto-Adafruit_AlphaNum4" style="stroke:#A8A8A8;stroke-width:1.0;"/><polygon fill="#A8A8A8" points="778.67,253,784.67,257,790.67,253,784.67,249,778.67,253" style="stroke:#A8A8A8;stroke-width:1.0;"/></g><!--reverse link UserCtrl to TimeSetState--><g id="link_UserCtrl_TimeSetState"><path codeLine="77" d="M686.25,612.28 C686.25,700.54 686.25,809.73 686.25,859.44 " fill="none" id="UserCtrl-backto-TimeSetState" style="stroke:#A8A8A8;stroke-width:1.0;"/><ellipse cx="686.25" cy="604.28" fill="none" rx="8" ry="8" style="stroke:#A8A8A8;stroke-width:1.0;"/><line style="stroke:#A8A8A8;stroke-width:1.0;" x1="686.25" x2="686.25" y1="612.28" y2="596.28"/><line style="stroke:#A8A8A8;stroke-width:1.0;" x1="678.25" x2="694.25" y1="604.28" y2="604.28"/></g><!--reverse link MomentarySwitch to InputType--><g id="link_MomentarySwitch_InputType"><path codeLine="117" d="M149.25,1122.27 C149.25,1143.63 149.25,1147.92 149.25,1165.72 " fill="none" id="MomentarySwitch-backto-InputType" style="stroke:#A8A8A8;stroke-width:1.0;"/><ellipse cx="149.25" cy="1114.27" fill="none" rx="8" ry="8" style="stroke:#A8A8A8;stroke-width:1.0;"/><line style="stroke:#A8A8A8;stroke-width:1.0;" x1="149.25" x2="149.25" y1="1122.27" y2="1106.27"/><line style="stroke:#A8A8A8;stroke-width:1.0;" x1="141.25" x2="157.25" y1="1114.27" y2="1114.27"/></g><!--reverse link MomentarySwitch to SwitchState--><g id="link_MomentarySwitch_SwitchState"><path codeLine="118" d="M299.25,1122.27 C299.25,1143.63 299.25,1147.92 299.25,1165.72 " fill="none" id="MomentarySwitch-backto-SwitchState" style="stroke:#A8A8A8;stroke-width:1.0;"/><ellipse cx="299.25" cy="1114.27" fill="none" rx="8" ry="8" style="stroke:#A8A8A8;stroke-width:1.0;"/><line style="stroke:#A8A8A8;stroke-width:1.0;" x1="299.25" x2="299.25" y1="1122.27" y2="1106.27"/><line style="stroke:#A8A8A8;stroke-width:1.0;" x1="291.25" x2="307.25" y1="1114.27" y2="1114.27"/></g><!--SRC=[KypCIyufJKbLA2wfp4dLJKaiojPDpi_9BohMAoZDpU5IH9574qlEIImkrar9JSlCoop9pC-3wW40]--></g></svg>